<?xml version="1.0" standalone="no"?>
<svg xmlns:xlink="http://www.w3.org/1999/xlink" id="wave" style="transform:rotate(0deg); transition: 0.3s" viewBox="0 0 1440 490" version="1.1" xmlns="http://www.w3.org/2000/svg"><defs><linearGradient id="sw-gradient-0" x1="0" x2="0" y1="1" y2="0"><stop stop-color="rgba(243, 106, 62, 1)" offset="0%"/><stop stop-color="rgba(255, 179, 11, 1)" offset="100%"/></linearGradient></defs><path style="transform:translate(0, 0px); opacity:1" fill="url(#sw-gradient-0)" d="M0,98L60,89.8C120,82,240,65,360,81.7C480,98,600,147,720,171.5C840,196,960,196,1080,220.5C1200,245,1320,294,1440,334.8C1560,376,1680,408,1800,400.2C1920,392,2040,343,2160,343C2280,343,2400,392,2520,383.8C2640,376,2760,310,2880,269.5C3000,229,3120,212,3240,171.5C3360,131,3480,65,3600,32.7C3720,0,3840,0,3960,32.7C4080,65,4200,131,4320,138.8C4440,147,4560,98,4680,114.3C4800,131,4920,212,5040,204.2C5160,196,5280,98,5400,114.3C5520,131,5640,261,5760,326.7C5880,392,6000,392,6120,326.7C6240,261,6360,131,6480,65.3C6600,0,6720,0,6840,32.7C6960,65,7080,131,7200,196C7320,261,7440,327,7560,318.5C7680,310,7800,229,7920,196C8040,163,8160,180,8280,228.7C8400,278,8520,359,8580,400.2L8640,441L8640,490L8580,490C8520,490,8400,490,8280,490C8160,490,8040,490,7920,490C7800,490,7680,490,7560,490C7440,490,7320,490,7200,490C7080,490,6960,490,6840,490C6720,490,6600,490,6480,490C6360,490,6240,490,6120,490C6000,490,5880,490,5760,490C5640,490,5520,490,5400,490C5280,490,5160,490,5040,490C4920,490,4800,490,4680,490C4560,490,4440,490,4320,490C4200,490,4080,490,3960,490C3840,490,3720,490,3600,490C3480,490,3360,490,3240,490C3120,490,3000,490,2880,490C2760,490,2640,490,2520,490C2400,490,2280,490,2160,490C2040,490,1920,490,1800,490C1680,490,1560,490,1440,490C1320,490,1200,490,1080,490C960,490,840,490,720,490C600,490,480,490,360,490C240,490,120,490,60,490L0,490Z"/><defs><linearGradient id="sw-gradient-1" x1="0" x2="0" y1="1" y2="0"><stop stop-color="rgba(243, 106, 62, 1)" offset="0%"/><stop stop-color="rgba(255, 179, 11, 1)" offset="100%"/></linearGradient></defs><path style="transform:translate(0, 50px); opacity:0.9" fill="url(#sw-gradient-1)" d="M0,441L60,416.5C120,392,240,343,360,343C480,343,600,392,720,359.3C840,327,960,212,1080,196C1200,180,1320,261,1440,285.8C1560,310,1680,278,1800,294C1920,310,2040,376,2160,392C2280,408,2400,376,2520,334.8C2640,294,2760,245,2880,204.2C3000,163,3120,131,3240,147C3360,163,3480,229,3600,220.5C3720,212,3840,131,3960,81.7C4080,33,4200,16,4320,65.3C4440,114,4560,229,4680,294C4800,359,4920,376,5040,343C5160,310,5280,229,5400,196C5520,163,5640,180,5760,212.3C5880,245,6000,294,6120,334.8C6240,376,6360,408,6480,367.5C6600,327,6720,212,6840,212.3C6960,212,7080,327,7200,351.2C7320,376,7440,310,7560,236.8C7680,163,7800,82,7920,65.3C8040,49,8160,98,8280,163.3C8400,229,8520,310,8580,351.2L8640,392L8640,490L8580,490C8520,490,8400,490,8280,490C8160,490,8040,490,7920,490C7800,490,7680,490,7560,490C7440,490,7320,490,7200,490C7080,490,6960,490,6840,490C6720,490,6600,490,6480,490C6360,490,6240,490,6120,490C6000,490,5880,490,5760,490C5640,490,5520,490,5400,490C5280,490,5160,490,5040,490C4920,490,4800,490,4680,490C4560,490,4440,490,4320,490C4200,490,4080,490,3960,490C3840,490,3720,490,3600,490C3480,490,3360,490,3240,490C3120,490,3000,490,2880,490C2760,490,2640,490,2520,490C2400,490,2280,490,2160,490C2040,490,1920,490,1800,490C1680,490,1560,490,1440,490C1320,490,1200,490,1080,490C960,490,840,490,720,490C600,490,480,490,360,490C240,490,120,490,60,490L0,490Z"/><defs><linearGradient id="sw-gradient-2" x1="0" x2="0" y1="1" y2="0"><stop stop-color="rgba(243, 106, 62, 1)" offset="0%"/><stop stop-color="rgba(255, 179, 11, 1)" offset="100%"/></linearGradient></defs><path style="transform:translate(0, 100px); opacity:0.8" fill="url(#sw-gradient-2)" d="M0,392L60,400.2C120,408,240,425,360,424.7C480,425,600,408,720,351.2C840,294,960,196,1080,138.8C1200,82,1320,65,1440,89.8C1560,114,1680,180,1800,179.7C1920,180,2040,114,2160,98C2280,82,2400,114,2520,122.5C2640,131,2760,114,2880,122.5C3000,131,3120,163,3240,212.3C3360,261,3480,327,3600,294C3720,261,3840,131,3960,122.5C4080,114,4200,229,4320,236.8C4440,245,4560,147,4680,163.3C4800,180,4920,310,5040,310.3C5160,310,5280,180,5400,155.2C5520,131,5640,212,5760,245C5880,278,6000,261,6120,253.2C6240,245,6360,245,6480,228.7C6600,212,6720,180,6840,147C6960,114,7080,82,7200,65.3C7320,49,7440,49,7560,73.5C7680,98,7800,147,7920,147C8040,147,8160,98,8280,65.3C8400,33,8520,16,8580,8.2L8640,0L8640,490L8580,490C8520,490,8400,490,8280,490C8160,490,8040,490,7920,490C7800,490,7680,490,7560,490C7440,490,7320,490,7200,490C7080,490,6960,490,6840,490C6720,490,6600,490,6480,490C6360,490,6240,490,6120,490C6000,490,5880,490,5760,490C5640,490,5520,490,5400,490C5280,490,5160,490,5040,490C4920,490,4800,490,4680,490C4560,490,4440,490,4320,490C4200,490,4080,490,3960,490C3840,490,3720,490,3600,490C3480,490,3360,490,3240,490C3120,490,3000,490,2880,490C2760,490,2640,490,2520,490C2400,490,2280,490,2160,490C2040,490,1920,490,1800,490C1680,490,1560,490,1440,490C1320,490,1200,490,1080,490C960,490,840,490,720,490C600,490,480,490,360,490C240,490,120,490,60,490L0,490Z"/></svg>